<mxfile host="app.diagrams.net" modified="2022-11-22T10:58:24.266Z" agent="5.0 (Windows NT 10.0; Win64; x64) AppleWebKit/537.36 (KHTML, like Gecko) Chrome/106.0.0.0 Safari/537.36" etag="NPuGL6aJCYi93A4DJjdR" version="20.5.3" type="github">
  <diagram id="_K48cLqti1GaLyE079BF" name="Page-1">
    <mxGraphModel dx="1043" dy="581" grid="1" gridSize="10" guides="1" tooltips="1" connect="1" arrows="1" fold="1" page="1" pageScale="1" pageWidth="1169" pageHeight="1654" math="0" shadow="0">
      <root>
        <mxCell id="0" />
        <mxCell id="1" parent="0" />
        <mxCell id="xYedoZE-uZVzS92_hHpU-44" style="edgeStyle=orthogonalEdgeStyle;rounded=0;orthogonalLoop=1;jettySize=auto;html=1;exitX=0;exitY=1;exitDx=0;exitDy=0;entryX=0;entryY=0.5;entryDx=0;entryDy=0;fontSize=12;" parent="1" source="xYedoZE-uZVzS92_hHpU-1" target="xYedoZE-uZVzS92_hHpU-2" edge="1">
          <mxGeometry relative="1" as="geometry">
            <Array as="points">
              <mxPoint x="88" y="200" />
            </Array>
          </mxGeometry>
        </mxCell>
        <mxCell id="xYedoZE-uZVzS92_hHpU-52" style="edgeStyle=orthogonalEdgeStyle;rounded=0;orthogonalLoop=1;jettySize=auto;html=1;exitX=0;exitY=1;exitDx=0;exitDy=0;entryX=0;entryY=0.5;entryDx=0;entryDy=0;fontSize=12;" parent="1" source="xYedoZE-uZVzS92_hHpU-1" target="xYedoZE-uZVzS92_hHpU-45" edge="1">
          <mxGeometry relative="1" as="geometry">
            <Array as="points">
              <mxPoint x="88" y="484" />
            </Array>
          </mxGeometry>
        </mxCell>
        <mxCell id="xYedoZE-uZVzS92_hHpU-96" style="edgeStyle=orthogonalEdgeStyle;rounded=0;orthogonalLoop=1;jettySize=auto;html=1;exitX=0;exitY=1;exitDx=0;exitDy=0;entryX=0;entryY=0.5;entryDx=0;entryDy=0;fontSize=12;" parent="1" source="xYedoZE-uZVzS92_hHpU-1" target="xYedoZE-uZVzS92_hHpU-54" edge="1">
          <mxGeometry relative="1" as="geometry">
            <Array as="points">
              <mxPoint x="88" y="564" />
            </Array>
          </mxGeometry>
        </mxCell>
        <mxCell id="xYedoZE-uZVzS92_hHpU-97" style="edgeStyle=orthogonalEdgeStyle;rounded=0;orthogonalLoop=1;jettySize=auto;html=1;exitX=0;exitY=1;exitDx=0;exitDy=0;entryX=0;entryY=0.5;entryDx=0;entryDy=0;fontSize=12;" parent="1" source="xYedoZE-uZVzS92_hHpU-1" target="xYedoZE-uZVzS92_hHpU-56" edge="1">
          <mxGeometry relative="1" as="geometry">
            <Array as="points">
              <mxPoint x="88" y="638" />
            </Array>
          </mxGeometry>
        </mxCell>
        <mxCell id="xYedoZE-uZVzS92_hHpU-98" style="edgeStyle=orthogonalEdgeStyle;rounded=0;orthogonalLoop=1;jettySize=auto;html=1;exitX=0;exitY=1;exitDx=0;exitDy=0;entryX=0;entryY=0.5;entryDx=0;entryDy=0;fontSize=12;" parent="1" source="xYedoZE-uZVzS92_hHpU-1" target="xYedoZE-uZVzS92_hHpU-57" edge="1">
          <mxGeometry relative="1" as="geometry">
            <Array as="points">
              <mxPoint x="88" y="710" />
            </Array>
          </mxGeometry>
        </mxCell>
        <mxCell id="xYedoZE-uZVzS92_hHpU-123" style="edgeStyle=orthogonalEdgeStyle;rounded=0;orthogonalLoop=1;jettySize=auto;html=1;exitX=0;exitY=1;exitDx=0;exitDy=0;entryX=0;entryY=0.5;entryDx=0;entryDy=0;fontSize=12;" parent="1" source="xYedoZE-uZVzS92_hHpU-1" target="xYedoZE-uZVzS92_hHpU-62" edge="1">
          <mxGeometry relative="1" as="geometry">
            <Array as="points">
              <mxPoint x="88" y="1150" />
            </Array>
          </mxGeometry>
        </mxCell>
        <mxCell id="xYedoZE-uZVzS92_hHpU-124" style="edgeStyle=orthogonalEdgeStyle;rounded=0;orthogonalLoop=1;jettySize=auto;html=1;exitX=0;exitY=1;exitDx=0;exitDy=0;entryX=0;entryY=0.5;entryDx=0;entryDy=0;fontSize=12;" parent="1" source="xYedoZE-uZVzS92_hHpU-1" target="xYedoZE-uZVzS92_hHpU-61" edge="1">
          <mxGeometry relative="1" as="geometry">
            <Array as="points">
              <mxPoint x="88" y="1070" />
            </Array>
          </mxGeometry>
        </mxCell>
        <mxCell id="xYedoZE-uZVzS92_hHpU-125" style="edgeStyle=orthogonalEdgeStyle;rounded=0;orthogonalLoop=1;jettySize=auto;html=1;exitX=0;exitY=1;exitDx=0;exitDy=0;entryX=0;entryY=0.5;entryDx=0;entryDy=0;fontSize=12;" parent="1" source="xYedoZE-uZVzS92_hHpU-1" target="xYedoZE-uZVzS92_hHpU-60" edge="1">
          <mxGeometry relative="1" as="geometry">
            <Array as="points">
              <mxPoint x="88" y="993" />
            </Array>
          </mxGeometry>
        </mxCell>
        <mxCell id="xYedoZE-uZVzS92_hHpU-127" style="edgeStyle=orthogonalEdgeStyle;rounded=0;orthogonalLoop=1;jettySize=auto;html=1;exitX=0;exitY=1;exitDx=0;exitDy=0;entryX=0;entryY=0.5;entryDx=0;entryDy=0;fontSize=12;" parent="1" source="xYedoZE-uZVzS92_hHpU-1" target="xYedoZE-uZVzS92_hHpU-58" edge="1">
          <mxGeometry relative="1" as="geometry">
            <Array as="points">
              <mxPoint x="88" y="806" />
            </Array>
          </mxGeometry>
        </mxCell>
        <mxCell id="xYedoZE-uZVzS92_hHpU-155" style="edgeStyle=orthogonalEdgeStyle;rounded=0;orthogonalLoop=1;jettySize=auto;html=1;exitX=0;exitY=1;exitDx=0;exitDy=0;entryX=0;entryY=0.5;entryDx=0;entryDy=0;fontSize=12;" parent="1" source="xYedoZE-uZVzS92_hHpU-1" target="xYedoZE-uZVzS92_hHpU-59" edge="1">
          <mxGeometry relative="1" as="geometry">
            <Array as="points">
              <mxPoint x="88" y="913" />
            </Array>
          </mxGeometry>
        </mxCell>
        <mxCell id="xYedoZE-uZVzS92_hHpU-156" style="edgeStyle=orthogonalEdgeStyle;rounded=0;orthogonalLoop=1;jettySize=auto;html=1;exitX=0;exitY=1;exitDx=0;exitDy=0;entryX=0;entryY=0.5;entryDx=0;entryDy=0;fontSize=12;" parent="1" source="xYedoZE-uZVzS92_hHpU-1" target="xYedoZE-uZVzS92_hHpU-63" edge="1">
          <mxGeometry relative="1" as="geometry">
            <Array as="points">
              <mxPoint x="88" y="1235" />
            </Array>
          </mxGeometry>
        </mxCell>
        <mxCell id="xYedoZE-uZVzS92_hHpU-1" value="&lt;b&gt;SaveSite()&lt;/b&gt;" style="rounded=1;whiteSpace=wrap;html=1;fillColor=#d5e8d4;strokeColor=#82b366;gradientColor=#97d077;" parent="1" vertex="1">
          <mxGeometry x="88" y="52" width="80" height="20" as="geometry" />
        </mxCell>
        <mxCell id="xYedoZE-uZVzS92_hHpU-15" style="edgeStyle=orthogonalEdgeStyle;rounded=0;orthogonalLoop=1;jettySize=auto;html=1;exitX=1;exitY=0.5;exitDx=0;exitDy=0;entryX=0;entryY=0.5;entryDx=0;entryDy=0;fontSize=10;" parent="1" source="xYedoZE-uZVzS92_hHpU-2" target="xYedoZE-uZVzS92_hHpU-3" edge="1">
          <mxGeometry relative="1" as="geometry" />
        </mxCell>
        <mxCell id="xYedoZE-uZVzS92_hHpU-24" style="edgeStyle=orthogonalEdgeStyle;rounded=0;orthogonalLoop=1;jettySize=auto;html=1;exitX=1;exitY=0.5;exitDx=0;exitDy=0;entryX=0;entryY=0.5;entryDx=0;entryDy=0;fontSize=11;" parent="1" source="xYedoZE-uZVzS92_hHpU-2" target="xYedoZE-uZVzS92_hHpU-19" edge="1">
          <mxGeometry relative="1" as="geometry" />
        </mxCell>
        <mxCell id="xYedoZE-uZVzS92_hHpU-32" style="edgeStyle=orthogonalEdgeStyle;rounded=0;orthogonalLoop=1;jettySize=auto;html=1;exitX=1;exitY=0.5;exitDx=0;exitDy=0;entryX=0;entryY=0.5;entryDx=0;entryDy=0;fontSize=12;" parent="1" source="xYedoZE-uZVzS92_hHpU-2" target="xYedoZE-uZVzS92_hHpU-27" edge="1">
          <mxGeometry relative="1" as="geometry" />
        </mxCell>
        <mxCell id="xYedoZE-uZVzS92_hHpU-39" style="edgeStyle=orthogonalEdgeStyle;rounded=0;orthogonalLoop=1;jettySize=auto;html=1;exitX=1;exitY=0.5;exitDx=0;exitDy=0;entryX=0;entryY=0.5;entryDx=0;entryDy=0;fontSize=12;" parent="1" source="xYedoZE-uZVzS92_hHpU-2" target="xYedoZE-uZVzS92_hHpU-35" edge="1">
          <mxGeometry relative="1" as="geometry" />
        </mxCell>
        <mxCell id="rZj4ElR0E89LXgk3V-ty-18" style="edgeStyle=orthogonalEdgeStyle;rounded=0;orthogonalLoop=1;jettySize=auto;html=1;exitX=1;exitY=0.5;exitDx=0;exitDy=0;entryX=0;entryY=0.5;entryDx=0;entryDy=0;fontSize=14;" edge="1" parent="1" source="xYedoZE-uZVzS92_hHpU-2" target="rZj4ElR0E89LXgk3V-ty-8">
          <mxGeometry relative="1" as="geometry" />
        </mxCell>
        <mxCell id="xYedoZE-uZVzS92_hHpU-2" value="&lt;b&gt;ReplicateQcUser()&lt;/b&gt;&lt;br&gt;&lt;i&gt;&lt;u&gt;Database: Partners&lt;/u&gt;&lt;/i&gt;" style="rounded=1;whiteSpace=wrap;html=1;" parent="1" vertex="1">
          <mxGeometry x="101" y="180" width="113" height="40" as="geometry" />
        </mxCell>
        <mxCell id="xYedoZE-uZVzS92_hHpU-14" style="edgeStyle=orthogonalEdgeStyle;rounded=0;orthogonalLoop=1;jettySize=auto;html=1;exitX=1;exitY=0.5;exitDx=0;exitDy=0;entryX=0;entryY=0.5;entryDx=0;entryDy=0;fontSize=10;" parent="1" source="xYedoZE-uZVzS92_hHpU-3" edge="1">
          <mxGeometry relative="1" as="geometry">
            <mxPoint x="506" y="76" as="targetPoint" />
            <Array as="points">
              <mxPoint x="411" y="76" />
            </Array>
          </mxGeometry>
        </mxCell>
        <mxCell id="xYedoZE-uZVzS92_hHpU-18" style="edgeStyle=orthogonalEdgeStyle;rounded=0;orthogonalLoop=1;jettySize=auto;html=1;exitX=0.5;exitY=1;exitDx=0;exitDy=0;entryX=0;entryY=0.5;entryDx=0;entryDy=0;fontSize=10;" parent="1" source="xYedoZE-uZVzS92_hHpU-3" target="xYedoZE-uZVzS92_hHpU-16" edge="1">
          <mxGeometry relative="1" as="geometry">
            <Array as="points">
              <mxPoint x="351" y="125" />
            </Array>
          </mxGeometry>
        </mxCell>
        <UserObject label="&lt;font style=&quot;font-size: 10px;&quot;&gt;&lt;b&gt;CheckIfVendor&lt;br&gt;Changed()&lt;/b&gt;&lt;/font&gt;" tooltip="Is Vendor change or not for SiteID?" id="xYedoZE-uZVzS92_hHpU-3">
          <mxCell style="rhombus;whiteSpace=wrap;html=1;" parent="1" vertex="1">
            <mxGeometry x="291" y="72" width="120" height="50" as="geometry" />
          </mxCell>
        </UserObject>
        <mxCell id="xYedoZE-uZVzS92_hHpU-6" value="Yes" style="text;html=1;strokeColor=none;fillColor=none;align=center;verticalAlign=middle;whiteSpace=wrap;rounded=0;fontSize=10;" parent="1" vertex="1">
          <mxGeometry x="420" y="103" width="60" height="30" as="geometry" />
        </mxCell>
        <mxCell id="xYedoZE-uZVzS92_hHpU-10" value="Execute" style="text;html=1;strokeColor=none;fillColor=none;align=center;verticalAlign=middle;whiteSpace=wrap;rounded=0;fontSize=10;" parent="1" vertex="1">
          <mxGeometry x="428" y="52" width="60" height="30" as="geometry" />
        </mxCell>
        <mxCell id="rZj4ElR0E89LXgk3V-ty-2" value="" style="edgeStyle=orthogonalEdgeStyle;rounded=0;orthogonalLoop=1;jettySize=auto;html=1;" edge="1" parent="1" source="xYedoZE-uZVzS92_hHpU-16" target="rZj4ElR0E89LXgk3V-ty-1">
          <mxGeometry relative="1" as="geometry" />
        </mxCell>
        <mxCell id="xYedoZE-uZVzS92_hHpU-16" value="&lt;b&gt;&lt;font style=&quot;font-size: 10px;&quot;&gt;RemoveSiteFromRevSharePlan()&lt;/font&gt;&lt;/b&gt;" style="shape=Rectangle;perimeter=RectanglePerimeter;whiteSpace=wrap;html=1;fixedSize=1;fontSize=10;" parent="1" vertex="1">
          <mxGeometry x="498" y="112" width="173" height="26" as="geometry" />
        </mxCell>
        <mxCell id="xYedoZE-uZVzS92_hHpU-17" value="&lt;b&gt;&lt;font style=&quot;font-size: 11px;&quot;&gt;cp_GetQcUserBySiteId&lt;/font&gt;&lt;/b&gt;" style="rounded=0;whiteSpace=wrap;html=1;fontSize=10;" parent="1" vertex="1">
          <mxGeometry x="506" y="62" width="145" height="29" as="geometry" />
        </mxCell>
        <mxCell id="xYedoZE-uZVzS92_hHpU-23" style="edgeStyle=orthogonalEdgeStyle;rounded=0;orthogonalLoop=1;jettySize=auto;html=1;exitX=1;exitY=0.5;exitDx=0;exitDy=0;entryX=0;entryY=0.5;entryDx=0;entryDy=0;fontSize=11;" parent="1" source="xYedoZE-uZVzS92_hHpU-19" target="xYedoZE-uZVzS92_hHpU-21" edge="1">
          <mxGeometry relative="1" as="geometry">
            <Array as="points">
              <mxPoint x="411" y="159" />
            </Array>
          </mxGeometry>
        </mxCell>
        <mxCell id="xYedoZE-uZVzS92_hHpU-19" value="&lt;b&gt;&lt;font style=&quot;font-size: 11px;&quot;&gt;AddNetworkToSite()&lt;/font&gt;&lt;/b&gt;" style="rounded=0;whiteSpace=wrap;html=1;fontSize=10;" parent="1" vertex="1">
          <mxGeometry x="291" y="147" width="120" height="22" as="geometry" />
        </mxCell>
        <mxCell id="xYedoZE-uZVzS92_hHpU-21" value="&lt;b&gt;&lt;i&gt;cp_AddNetworkToSite&lt;/i&gt;&lt;/b&gt;" style="rounded=0;whiteSpace=wrap;html=1;fontSize=11;" parent="1" vertex="1">
          <mxGeometry x="506" y="147" width="135" height="24" as="geometry" />
        </mxCell>
        <mxCell id="xYedoZE-uZVzS92_hHpU-22" value="Execute" style="text;html=1;strokeColor=none;fillColor=none;align=center;verticalAlign=middle;whiteSpace=wrap;rounded=0;fontSize=10;" parent="1" vertex="1">
          <mxGeometry x="429" y="137" width="60" height="30" as="geometry" />
        </mxCell>
        <mxCell id="xYedoZE-uZVzS92_hHpU-25" value="&lt;b&gt;&lt;font style=&quot;font-size: 12px;&quot;&gt;1&lt;/font&gt;&lt;/b&gt;" style="ellipse;whiteSpace=wrap;html=1;fontSize=11;fillColor=#f8cecc;strokeColor=#b85450;" parent="1" vertex="1">
          <mxGeometry x="263" y="71" width="20" height="20" as="geometry" />
        </mxCell>
        <mxCell id="xYedoZE-uZVzS92_hHpU-26" value="&lt;b&gt;&lt;font style=&quot;font-size: 12px;&quot;&gt;2&lt;/font&gt;&lt;/b&gt;" style="ellipse;whiteSpace=wrap;html=1;fontSize=11;fillColor=#f8cecc;strokeColor=#b85450;" parent="1" vertex="1">
          <mxGeometry x="263" y="134" width="20" height="20" as="geometry" />
        </mxCell>
        <mxCell id="xYedoZE-uZVzS92_hHpU-31" style="edgeStyle=orthogonalEdgeStyle;rounded=0;orthogonalLoop=1;jettySize=auto;html=1;exitX=1;exitY=0.5;exitDx=0;exitDy=0;entryX=0;entryY=0.5;entryDx=0;entryDy=0;fontSize=12;" parent="1" source="xYedoZE-uZVzS92_hHpU-27" target="xYedoZE-uZVzS92_hHpU-28" edge="1">
          <mxGeometry relative="1" as="geometry">
            <Array as="points">
              <mxPoint x="411" y="200" />
            </Array>
          </mxGeometry>
        </mxCell>
        <mxCell id="xYedoZE-uZVzS92_hHpU-27" value="&lt;b&gt;&lt;font style=&quot;font-size: 11px;&quot;&gt;RemoveSiteFromNetwork()&lt;/font&gt;&lt;/b&gt;" style="rounded=0;whiteSpace=wrap;html=1;fontSize=10;" parent="1" vertex="1">
          <mxGeometry x="291" y="188" width="150" height="23" as="geometry" />
        </mxCell>
        <mxCell id="xYedoZE-uZVzS92_hHpU-28" value="&lt;b&gt;&lt;i&gt;cp_RemoveSiteFromNetwork&lt;/i&gt;&lt;/b&gt;" style="rounded=0;whiteSpace=wrap;html=1;fontSize=11;" parent="1" vertex="1">
          <mxGeometry x="506" y="188" width="165" height="24" as="geometry" />
        </mxCell>
        <mxCell id="xYedoZE-uZVzS92_hHpU-29" value="Execute" style="text;html=1;strokeColor=none;fillColor=none;align=center;verticalAlign=middle;whiteSpace=wrap;rounded=0;fontSize=10;" parent="1" vertex="1">
          <mxGeometry x="438" y="179" width="60" height="30" as="geometry" />
        </mxCell>
        <mxCell id="xYedoZE-uZVzS92_hHpU-33" value="&lt;b&gt;&lt;font style=&quot;font-size: 12px;&quot;&gt;3&lt;/font&gt;&lt;/b&gt;" style="ellipse;whiteSpace=wrap;html=1;fontSize=11;fillColor=#f8cecc;strokeColor=#b85450;" parent="1" vertex="1">
          <mxGeometry x="263" y="177" width="20" height="20" as="geometry" />
        </mxCell>
        <mxCell id="xYedoZE-uZVzS92_hHpU-37" style="edgeStyle=orthogonalEdgeStyle;rounded=0;orthogonalLoop=1;jettySize=auto;html=1;exitX=1;exitY=0.5;exitDx=0;exitDy=0;entryX=0;entryY=0.5;entryDx=0;entryDy=0;fontSize=12;" parent="1" source="xYedoZE-uZVzS92_hHpU-35" target="xYedoZE-uZVzS92_hHpU-36" edge="1">
          <mxGeometry relative="1" as="geometry" />
        </mxCell>
        <mxCell id="xYedoZE-uZVzS92_hHpU-35" value="&lt;b&gt;&lt;font style=&quot;font-size: 11px;&quot;&gt;UpdateQcUserPrepTables()&lt;br&gt;UpdateQcUserOffice()&lt;br&gt;UpdateQcUserInfo()&lt;br&gt;UpdateQcUserStatus()&lt;br&gt;UpdateQcUserLeftOver()&lt;br&gt;ReplicateOneField(&quot;custom&quot;)&lt;br&gt;ReplicateOneField(&quot;testcustom&quot;)&lt;br&gt;&lt;br&gt;&lt;/font&gt;&lt;/b&gt;" style="rounded=0;whiteSpace=wrap;html=1;fontSize=10;" parent="1" vertex="1">
          <mxGeometry x="291" y="226" width="180" height="115" as="geometry" />
        </mxCell>
        <mxCell id="xYedoZE-uZVzS92_hHpU-36" value="&lt;b&gt;&lt;i&gt;cp_PrepQcUserTables&lt;br&gt;cp_UpdateEcQcUserOffice&lt;br&gt;&lt;/i&gt;&lt;/b&gt;&lt;b&gt;&lt;i&gt;cp_UpdateEcQcUserInfo&lt;br&gt;&lt;/i&gt;&lt;/b&gt;&lt;b&gt;&lt;i&gt;cp_UpdateEcQcUserStatus&lt;br&gt;&lt;/i&gt;&lt;/b&gt;&lt;b&gt;&lt;i&gt;cp_UpdateQcUserLeftOver&lt;br&gt;&lt;/i&gt;&lt;/b&gt;&lt;b&gt;&lt;i&gt;cp_UpdateEcQcUserTables&lt;br&gt;&lt;/i&gt;&lt;/b&gt;&lt;b&gt;&lt;i&gt;cp_UpdateEcQcUserTables&lt;/i&gt;&lt;/b&gt;&lt;b&gt;&lt;i&gt;&lt;br&gt;&lt;br&gt;&lt;/i&gt;&lt;/b&gt;" style="rounded=0;whiteSpace=wrap;html=1;fontSize=11;fillColor=#fad7ac;strokeColor=#b46504;" parent="1" vertex="1">
          <mxGeometry x="571" y="228.75" width="190" height="109.5" as="geometry" />
        </mxCell>
        <mxCell id="xYedoZE-uZVzS92_hHpU-38" value="Execute" style="text;html=1;strokeColor=none;fillColor=none;align=center;verticalAlign=middle;whiteSpace=wrap;rounded=0;fontSize=10;" parent="1" vertex="1">
          <mxGeometry x="485" y="258" width="60" height="30" as="geometry" />
        </mxCell>
        <mxCell id="xYedoZE-uZVzS92_hHpU-40" value="&lt;b&gt;&lt;font style=&quot;font-size: 12px;&quot;&gt;4&lt;/font&gt;&lt;/b&gt;" style="ellipse;whiteSpace=wrap;html=1;fontSize=11;fillColor=#f8cecc;strokeColor=#b85450;" parent="1" vertex="1">
          <mxGeometry x="263" y="259" width="20" height="20" as="geometry" />
        </mxCell>
        <mxCell id="xYedoZE-uZVzS92_hHpU-49" style="edgeStyle=orthogonalEdgeStyle;rounded=0;orthogonalLoop=1;jettySize=auto;html=1;exitX=1;exitY=0.5;exitDx=0;exitDy=0;entryX=0;entryY=0.5;entryDx=0;entryDy=0;fontSize=12;" parent="1" source="xYedoZE-uZVzS92_hHpU-45" target="xYedoZE-uZVzS92_hHpU-46" edge="1">
          <mxGeometry relative="1" as="geometry" />
        </mxCell>
        <mxCell id="xYedoZE-uZVzS92_hHpU-45" value="&lt;b&gt;SetModemPortIRQ()&lt;/b&gt;&lt;br&gt;&lt;i&gt;&lt;u&gt;Database: ClaimHistory&lt;/u&gt;&lt;/i&gt;" style="rounded=1;whiteSpace=wrap;html=1;" parent="1" vertex="1">
          <mxGeometry x="101" y="464" width="130" height="40" as="geometry" />
        </mxCell>
        <mxCell id="xYedoZE-uZVzS92_hHpU-51" style="edgeStyle=orthogonalEdgeStyle;rounded=0;orthogonalLoop=1;jettySize=auto;html=1;exitX=1;exitY=0.5;exitDx=0;exitDy=0;entryX=0;entryY=0.5;entryDx=0;entryDy=0;fontSize=12;" parent="1" source="xYedoZE-uZVzS92_hHpU-46" target="xYedoZE-uZVzS92_hHpU-47" edge="1">
          <mxGeometry relative="1" as="geometry" />
        </mxCell>
        <mxCell id="xYedoZE-uZVzS92_hHpU-46" value="&lt;b&gt;&lt;i&gt;cp_SetAdditionalQc_User3&lt;/i&gt;&lt;/b&gt;" style="rounded=0;whiteSpace=wrap;html=1;fontSize=11;" parent="1" vertex="1">
          <mxGeometry x="291" y="472" width="165" height="24" as="geometry" />
        </mxCell>
        <mxCell id="xYedoZE-uZVzS92_hHpU-47" value="&lt;b&gt;Table Name:&lt;/b&gt;&lt;br&gt;&lt;i&gt;AdditionalQc_User&lt;/i&gt;" style="shape=internalStorage;whiteSpace=wrap;html=1;backgroundOutline=1;fontSize=12;" parent="1" vertex="1">
          <mxGeometry x="541" y="464" width="150" height="40" as="geometry" />
        </mxCell>
        <mxCell id="xYedoZE-uZVzS92_hHpU-48" value="Execute" style="text;html=1;strokeColor=none;fillColor=none;align=center;verticalAlign=middle;whiteSpace=wrap;rounded=0;fontSize=10;" parent="1" vertex="1">
          <mxGeometry x="230" y="463" width="60" height="30" as="geometry" />
        </mxCell>
        <mxCell id="xYedoZE-uZVzS92_hHpU-50" value="Update" style="text;html=1;strokeColor=none;fillColor=none;align=center;verticalAlign=middle;whiteSpace=wrap;rounded=0;fontSize=10;" parent="1" vertex="1">
          <mxGeometry x="471" y="463" width="60" height="30" as="geometry" />
        </mxCell>
        <mxCell id="xYedoZE-uZVzS92_hHpU-67" style="edgeStyle=orthogonalEdgeStyle;rounded=0;orthogonalLoop=1;jettySize=auto;html=1;exitX=1;exitY=0.5;exitDx=0;exitDy=0;entryX=0;entryY=0.5;entryDx=0;entryDy=0;fontSize=12;" parent="1" source="xYedoZE-uZVzS92_hHpU-54" target="xYedoZE-uZVzS92_hHpU-65" edge="1">
          <mxGeometry relative="1" as="geometry">
            <Array as="points">
              <mxPoint x="251" y="564" />
              <mxPoint x="251" y="596" />
            </Array>
          </mxGeometry>
        </mxCell>
        <mxCell id="xYedoZE-uZVzS92_hHpU-54" value="&lt;b&gt;SaveRemitLocation()&lt;/b&gt;&lt;br&gt;&lt;i&gt;&lt;u&gt;Database: Admin&lt;/u&gt;&lt;/i&gt;" style="rounded=1;whiteSpace=wrap;html=1;" parent="1" vertex="1">
          <mxGeometry x="101" y="544" width="130" height="40" as="geometry" />
        </mxCell>
        <mxCell id="xYedoZE-uZVzS92_hHpU-68" style="edgeStyle=orthogonalEdgeStyle;rounded=0;orthogonalLoop=1;jettySize=auto;html=1;exitX=1;exitY=0.5;exitDx=0;exitDy=0;fontSize=12;" parent="1" source="xYedoZE-uZVzS92_hHpU-56" edge="1">
          <mxGeometry relative="1" as="geometry">
            <mxPoint x="321" y="596" as="targetPoint" />
            <Array as="points">
              <mxPoint x="251" y="639" />
              <mxPoint x="251" y="596" />
            </Array>
          </mxGeometry>
        </mxCell>
        <mxCell id="xYedoZE-uZVzS92_hHpU-56" value="&lt;b&gt;SaveBatchEligibility&lt;br&gt;AutoDownload()&lt;/b&gt;&lt;br&gt;&lt;i&gt;&lt;u&gt;Database: Admin&lt;/u&gt;&lt;/i&gt;" style="rounded=1;whiteSpace=wrap;html=1;" parent="1" vertex="1">
          <mxGeometry x="101" y="612" width="130" height="53" as="geometry" />
        </mxCell>
        <mxCell id="xYedoZE-uZVzS92_hHpU-85" style="edgeStyle=orthogonalEdgeStyle;rounded=0;orthogonalLoop=1;jettySize=auto;html=1;exitX=1;exitY=0.5;exitDx=0;exitDy=0;entryX=0;entryY=0.5;entryDx=0;entryDy=0;fontSize=12;" parent="1" source="xYedoZE-uZVzS92_hHpU-57" target="xYedoZE-uZVzS92_hHpU-75" edge="1">
          <mxGeometry relative="1" as="geometry" />
        </mxCell>
        <mxCell id="xYedoZE-uZVzS92_hHpU-57" value="&lt;b&gt;SaveCOBtoPaperSites()&lt;/b&gt;&lt;br&gt;&lt;i&gt;&lt;u&gt;Database: EditsSystem&lt;/u&gt;&lt;/i&gt;" style="rounded=1;whiteSpace=wrap;html=1;" parent="1" vertex="1">
          <mxGeometry x="101" y="690" width="140" height="40" as="geometry" />
        </mxCell>
        <mxCell id="xYedoZE-uZVzS92_hHpU-143" style="edgeStyle=orthogonalEdgeStyle;rounded=0;orthogonalLoop=1;jettySize=auto;html=1;exitX=1;exitY=0.5;exitDx=0;exitDy=0;entryX=0;entryY=0.5;entryDx=0;entryDy=0;fontSize=12;" parent="1" source="xYedoZE-uZVzS92_hHpU-58" target="xYedoZE-uZVzS92_hHpU-142" edge="1">
          <mxGeometry relative="1" as="geometry" />
        </mxCell>
        <mxCell id="xYedoZE-uZVzS92_hHpU-144" style="edgeStyle=orthogonalEdgeStyle;rounded=0;orthogonalLoop=1;jettySize=auto;html=1;exitX=1;exitY=0.5;exitDx=0;exitDy=0;entryX=0;entryY=0.5;entryDx=0;entryDy=0;fontSize=12;" parent="1" source="xYedoZE-uZVzS92_hHpU-58" target="xYedoZE-uZVzS92_hHpU-141" edge="1">
          <mxGeometry relative="1" as="geometry">
            <Array as="points">
              <mxPoint x="241" y="851" />
            </Array>
          </mxGeometry>
        </mxCell>
        <mxCell id="xYedoZE-uZVzS92_hHpU-58" value="&lt;b&gt;cp_SetFTPUserSettings&lt;/b&gt;&lt;br&gt;&lt;i&gt;&lt;u&gt;Database: ServeU&lt;/u&gt;&lt;/i&gt;" style="rounded=1;whiteSpace=wrap;html=1;" parent="1" vertex="1">
          <mxGeometry x="101" y="786" width="140" height="40" as="geometry" />
        </mxCell>
        <mxCell id="xYedoZE-uZVzS92_hHpU-136" style="edgeStyle=orthogonalEdgeStyle;rounded=0;orthogonalLoop=1;jettySize=auto;html=1;exitX=1;exitY=0.5;exitDx=0;exitDy=0;entryX=0;entryY=0.5;entryDx=0;entryDy=0;fontSize=12;" parent="1" source="xYedoZE-uZVzS92_hHpU-59" target="xYedoZE-uZVzS92_hHpU-135" edge="1">
          <mxGeometry relative="1" as="geometry" />
        </mxCell>
        <mxCell id="xYedoZE-uZVzS92_hHpU-59" value="&lt;b&gt;cp_AddUser&lt;/b&gt;&lt;br&gt;&lt;i&gt;&lt;u&gt;Database: ServUSFTP&lt;/u&gt;&lt;/i&gt;" style="rounded=1;whiteSpace=wrap;html=1;" parent="1" vertex="1">
          <mxGeometry x="101" y="893" width="130" height="40" as="geometry" />
        </mxCell>
        <mxCell id="xYedoZE-uZVzS92_hHpU-89" style="edgeStyle=orthogonalEdgeStyle;rounded=0;orthogonalLoop=1;jettySize=auto;html=1;exitX=1;exitY=0.5;exitDx=0;exitDy=0;fontSize=12;" parent="1" source="xYedoZE-uZVzS92_hHpU-60" target="xYedoZE-uZVzS92_hHpU-87" edge="1">
          <mxGeometry relative="1" as="geometry" />
        </mxCell>
        <mxCell id="xYedoZE-uZVzS92_hHpU-60" value="&lt;b&gt;UpdateWebClaims()&lt;/b&gt;&lt;br&gt;&lt;i&gt;&lt;u&gt;Database: ClaimHistory&lt;/u&gt;&lt;/i&gt;" style="rounded=1;whiteSpace=wrap;html=1;" parent="1" vertex="1">
          <mxGeometry x="101" y="973" width="130" height="40" as="geometry" />
        </mxCell>
        <mxCell id="xYedoZE-uZVzS92_hHpU-118" style="edgeStyle=orthogonalEdgeStyle;rounded=0;orthogonalLoop=1;jettySize=auto;html=1;exitX=1;exitY=0.5;exitDx=0;exitDy=0;entryX=0;entryY=0.5;entryDx=0;entryDy=0;fontSize=12;" parent="1" source="xYedoZE-uZVzS92_hHpU-61" target="xYedoZE-uZVzS92_hHpU-117" edge="1">
          <mxGeometry relative="1" as="geometry" />
        </mxCell>
        <mxCell id="xYedoZE-uZVzS92_hHpU-61" value="&lt;b&gt;SetPrintOptions()&lt;/b&gt;&lt;br&gt;&lt;i&gt;&lt;u&gt;Database: Apps/QcBill&lt;/u&gt;&lt;/i&gt;" style="rounded=1;whiteSpace=wrap;html=1;" parent="1" vertex="1">
          <mxGeometry x="101" y="1050" width="130" height="40" as="geometry" />
        </mxCell>
        <mxCell id="xYedoZE-uZVzS92_hHpU-109" style="edgeStyle=orthogonalEdgeStyle;rounded=0;orthogonalLoop=1;jettySize=auto;html=1;exitX=1;exitY=0.5;exitDx=0;exitDy=0;fontSize=12;" parent="1" source="xYedoZE-uZVzS92_hHpU-62" target="xYedoZE-uZVzS92_hHpU-99" edge="1">
          <mxGeometry relative="1" as="geometry" />
        </mxCell>
        <mxCell id="xYedoZE-uZVzS92_hHpU-62" value="&lt;b&gt;EditWarning()&lt;/b&gt;&lt;br&gt;&lt;i&gt;&lt;u&gt;Database: ClaimHistory&lt;/u&gt;&lt;/i&gt;" style="rounded=1;whiteSpace=wrap;html=1;" parent="1" vertex="1">
          <mxGeometry x="101" y="1130" width="130" height="40" as="geometry" />
        </mxCell>
        <mxCell id="xYedoZE-uZVzS92_hHpU-113" style="edgeStyle=orthogonalEdgeStyle;rounded=0;orthogonalLoop=1;jettySize=auto;html=1;exitX=1;exitY=0.5;exitDx=0;exitDy=0;entryX=0;entryY=0.5;entryDx=0;entryDy=0;fontSize=12;" parent="1" source="xYedoZE-uZVzS92_hHpU-63" target="xYedoZE-uZVzS92_hHpU-111" edge="1">
          <mxGeometry relative="1" as="geometry" />
        </mxCell>
        <mxCell id="xYedoZE-uZVzS92_hHpU-63" value="&lt;b&gt;UpdateCopyToSite()&lt;/b&gt;&lt;br&gt;&lt;i&gt;&lt;u&gt;Database: Admin&lt;/u&gt;&lt;/i&gt;" style="rounded=1;whiteSpace=wrap;html=1;" parent="1" vertex="1">
          <mxGeometry x="101" y="1215" width="130" height="40" as="geometry" />
        </mxCell>
        <mxCell id="xYedoZE-uZVzS92_hHpU-69" style="edgeStyle=orthogonalEdgeStyle;rounded=0;orthogonalLoop=1;jettySize=auto;html=1;exitX=1;exitY=0.5;exitDx=0;exitDy=0;entryX=0;entryY=0.5;entryDx=0;entryDy=0;fontSize=12;" parent="1" source="xYedoZE-uZVzS92_hHpU-65" target="xYedoZE-uZVzS92_hHpU-66" edge="1">
          <mxGeometry relative="1" as="geometry" />
        </mxCell>
        <mxCell id="xYedoZE-uZVzS92_hHpU-65" value="&lt;b&gt;&lt;i&gt;cp_SetUserPreference&lt;/i&gt;&lt;/b&gt;" style="rounded=0;whiteSpace=wrap;html=1;fontSize=11;" parent="1" vertex="1">
          <mxGeometry x="320" y="584" width="165" height="24" as="geometry" />
        </mxCell>
        <mxCell id="xYedoZE-uZVzS92_hHpU-66" value="&lt;b&gt;Table Name:&lt;/b&gt;&lt;br&gt;&lt;i&gt;UserPreferences&lt;/i&gt;" style="shape=internalStorage;whiteSpace=wrap;html=1;backgroundOutline=1;fontSize=12;" parent="1" vertex="1">
          <mxGeometry x="561" y="576" width="150" height="40" as="geometry" />
        </mxCell>
        <mxCell id="xYedoZE-uZVzS92_hHpU-70" value="Execute" style="text;html=1;strokeColor=none;fillColor=none;align=center;verticalAlign=middle;whiteSpace=wrap;rounded=0;fontSize=10;" parent="1" vertex="1">
          <mxGeometry x="251" y="573" width="60" height="30" as="geometry" />
        </mxCell>
        <mxCell id="xYedoZE-uZVzS92_hHpU-71" value="Update" style="text;html=1;strokeColor=none;fillColor=none;align=center;verticalAlign=middle;whiteSpace=wrap;rounded=0;fontSize=10;" parent="1" vertex="1">
          <mxGeometry x="489" y="572" width="60" height="30" as="geometry" />
        </mxCell>
        <mxCell id="xYedoZE-uZVzS92_hHpU-72" value="&lt;b&gt;Table Name:&lt;/b&gt;&lt;br&gt;&lt;i&gt;COBToPaperSites&lt;/i&gt;" style="shape=internalStorage;whiteSpace=wrap;html=1;backgroundOutline=1;fontSize=12;" parent="1" vertex="1">
          <mxGeometry x="751" y="692" width="150" height="40" as="geometry" />
        </mxCell>
        <mxCell id="xYedoZE-uZVzS92_hHpU-79" style="edgeStyle=orthogonalEdgeStyle;rounded=0;orthogonalLoop=1;jettySize=auto;html=1;exitX=1;exitY=0.5;exitDx=0;exitDy=0;entryX=0;entryY=0.5;entryDx=0;entryDy=0;fontSize=12;" parent="1" source="xYedoZE-uZVzS92_hHpU-75" target="xYedoZE-uZVzS92_hHpU-78" edge="1">
          <mxGeometry relative="1" as="geometry" />
        </mxCell>
        <mxCell id="xYedoZE-uZVzS92_hHpU-83" style="edgeStyle=orthogonalEdgeStyle;rounded=0;orthogonalLoop=1;jettySize=auto;html=1;exitX=0.5;exitY=1;exitDx=0;exitDy=0;entryX=0;entryY=0.5;entryDx=0;entryDy=0;fontSize=12;" parent="1" source="xYedoZE-uZVzS92_hHpU-75" edge="1">
          <mxGeometry relative="1" as="geometry">
            <mxPoint x="551" y="733" as="targetPoint" />
            <Array as="points">
              <mxPoint x="397" y="733" />
            </Array>
          </mxGeometry>
        </mxCell>
        <mxCell id="xYedoZE-uZVzS92_hHpU-75" value="if&lt;br&gt;mintCOBtoPaperSites&lt;br&gt;== 0" style="rhombus;whiteSpace=wrap;html=1;fontSize=12;" parent="1" vertex="1">
          <mxGeometry x="320" y="653" width="153" height="70" as="geometry" />
        </mxCell>
        <mxCell id="xYedoZE-uZVzS92_hHpU-77" value="Yes" style="text;html=1;strokeColor=none;fillColor=none;align=center;verticalAlign=middle;whiteSpace=wrap;rounded=0;fontSize=10;" parent="1" vertex="1">
          <mxGeometry x="472" y="666" width="60" height="30" as="geometry" />
        </mxCell>
        <mxCell id="xYedoZE-uZVzS92_hHpU-80" style="edgeStyle=orthogonalEdgeStyle;rounded=0;orthogonalLoop=1;jettySize=auto;html=1;exitX=1;exitY=0.5;exitDx=0;exitDy=0;fontSize=12;" parent="1" source="xYedoZE-uZVzS92_hHpU-78" target="xYedoZE-uZVzS92_hHpU-72" edge="1">
          <mxGeometry relative="1" as="geometry" />
        </mxCell>
        <mxCell id="xYedoZE-uZVzS92_hHpU-78" value="Delete the record" style="shape=parallelogram;perimeter=parallelogramPerimeter;whiteSpace=wrap;html=1;fixedSize=1;fontSize=12;" parent="1" vertex="1">
          <mxGeometry x="541" y="673" width="126" height="30" as="geometry" />
        </mxCell>
        <mxCell id="xYedoZE-uZVzS92_hHpU-151" style="edgeStyle=orthogonalEdgeStyle;rounded=0;orthogonalLoop=1;jettySize=auto;html=1;exitX=1;exitY=0.5;exitDx=0;exitDy=0;entryX=0;entryY=0.5;entryDx=0;entryDy=0;fontSize=12;" parent="1" target="xYedoZE-uZVzS92_hHpU-72" edge="1">
          <mxGeometry relative="1" as="geometry">
            <mxPoint x="657" y="735" as="sourcePoint" />
          </mxGeometry>
        </mxCell>
        <mxCell id="xYedoZE-uZVzS92_hHpU-81" value="Insert the record" style="shape=parallelogram;perimeter=parallelogramPerimeter;whiteSpace=wrap;html=1;fixedSize=1;fontSize=12;" parent="1" vertex="1">
          <mxGeometry x="541" y="720" width="126" height="30" as="geometry" />
        </mxCell>
        <mxCell id="xYedoZE-uZVzS92_hHpU-82" value="From" style="text;html=1;strokeColor=none;fillColor=none;align=center;verticalAlign=middle;whiteSpace=wrap;rounded=0;fontSize=10;" parent="1" vertex="1">
          <mxGeometry x="661" y="666" width="60" height="30" as="geometry" />
        </mxCell>
        <mxCell id="xYedoZE-uZVzS92_hHpU-84" value="No" style="text;html=1;strokeColor=none;fillColor=none;align=center;verticalAlign=middle;whiteSpace=wrap;rounded=0;fontSize=10;" parent="1" vertex="1">
          <mxGeometry x="413" y="709" width="60" height="30" as="geometry" />
        </mxCell>
        <mxCell id="xYedoZE-uZVzS92_hHpU-90" style="edgeStyle=orthogonalEdgeStyle;rounded=0;orthogonalLoop=1;jettySize=auto;html=1;exitX=1;exitY=0.5;exitDx=0;exitDy=0;entryX=0;entryY=0.5;entryDx=0;entryDy=0;fontSize=12;" parent="1" source="xYedoZE-uZVzS92_hHpU-87" target="xYedoZE-uZVzS92_hHpU-88" edge="1">
          <mxGeometry relative="1" as="geometry" />
        </mxCell>
        <mxCell id="xYedoZE-uZVzS92_hHpU-87" value="&lt;b&gt;&lt;i&gt;cp_AddOrUpdateCustBatches&lt;/i&gt;&lt;/b&gt;" style="rounded=0;whiteSpace=wrap;html=1;fontSize=11;" parent="1" vertex="1">
          <mxGeometry x="320" y="981" width="165" height="24" as="geometry" />
        </mxCell>
        <mxCell id="xYedoZE-uZVzS92_hHpU-88" value="&lt;b&gt;Table Name:&lt;/b&gt;&lt;br&gt;&lt;i&gt;CustBatches&lt;/i&gt;" style="shape=internalStorage;whiteSpace=wrap;html=1;backgroundOutline=1;fontSize=12;" parent="1" vertex="1">
          <mxGeometry x="601" y="973" width="150" height="40" as="geometry" />
        </mxCell>
        <mxCell id="xYedoZE-uZVzS92_hHpU-91" value="Add/Update" style="text;html=1;strokeColor=none;fillColor=none;align=center;verticalAlign=middle;whiteSpace=wrap;rounded=0;fontSize=10;" parent="1" vertex="1">
          <mxGeometry x="506" y="969" width="60" height="30" as="geometry" />
        </mxCell>
        <mxCell id="xYedoZE-uZVzS92_hHpU-92" value="Execute" style="text;html=1;strokeColor=none;fillColor=none;align=center;verticalAlign=middle;whiteSpace=wrap;rounded=0;fontSize=10;" parent="1" vertex="1">
          <mxGeometry x="243" y="969" width="60" height="30" as="geometry" />
        </mxCell>
        <mxCell id="xYedoZE-uZVzS92_hHpU-93" value="Into" style="text;html=1;strokeColor=none;fillColor=none;align=center;verticalAlign=middle;whiteSpace=wrap;rounded=0;fontSize=10;" parent="1" vertex="1">
          <mxGeometry x="658" y="709" width="60" height="30" as="geometry" />
        </mxCell>
        <mxCell id="xYedoZE-uZVzS92_hHpU-107" style="edgeStyle=orthogonalEdgeStyle;rounded=0;orthogonalLoop=1;jettySize=auto;html=1;exitX=1;exitY=0.5;exitDx=0;exitDy=0;entryX=0;entryY=0.5;entryDx=0;entryDy=0;fontSize=12;" parent="1" source="xYedoZE-uZVzS92_hHpU-99" target="xYedoZE-uZVzS92_hHpU-101" edge="1">
          <mxGeometry relative="1" as="geometry" />
        </mxCell>
        <mxCell id="xYedoZE-uZVzS92_hHpU-99" value="&lt;b&gt;&lt;i&gt;cp_RemoveWarning&lt;/i&gt;&lt;/b&gt;" style="rounded=0;whiteSpace=wrap;html=1;fontSize=11;" parent="1" vertex="1">
          <mxGeometry x="320" y="1138" width="121" height="24" as="geometry" />
        </mxCell>
        <mxCell id="xYedoZE-uZVzS92_hHpU-100" value="&lt;b&gt;Table Name:&lt;/b&gt;&lt;br&gt;&lt;i&gt;Warning&lt;/i&gt;" style="shape=internalStorage;whiteSpace=wrap;html=1;backgroundOutline=1;fontSize=12;" parent="1" vertex="1">
          <mxGeometry x="901" y="1130" width="126" height="40" as="geometry" />
        </mxCell>
        <mxCell id="xYedoZE-uZVzS92_hHpU-105" style="edgeStyle=orthogonalEdgeStyle;rounded=0;orthogonalLoop=1;jettySize=auto;html=1;exitX=1;exitY=0.5;exitDx=0;exitDy=0;entryX=0;entryY=0.5;entryDx=0;entryDy=0;fontSize=12;" parent="1" source="xYedoZE-uZVzS92_hHpU-101" target="xYedoZE-uZVzS92_hHpU-102" edge="1">
          <mxGeometry relative="1" as="geometry" />
        </mxCell>
        <mxCell id="xYedoZE-uZVzS92_hHpU-101" value="if&lt;br&gt;Warning Contact &amp;amp; Note&lt;br&gt;are Empty" style="rhombus;whiteSpace=wrap;html=1;fontSize=12;" parent="1" vertex="1">
          <mxGeometry x="505" y="1115" width="153" height="70" as="geometry" />
        </mxCell>
        <mxCell id="rZj4ElR0E89LXgk3V-ty-25" style="edgeStyle=orthogonalEdgeStyle;rounded=0;orthogonalLoop=1;jettySize=auto;html=1;exitX=1;exitY=0.5;exitDx=0;exitDy=0;entryX=0;entryY=0.5;entryDx=0;entryDy=0;fontSize=12;" edge="1" parent="1" source="xYedoZE-uZVzS92_hHpU-102" target="xYedoZE-uZVzS92_hHpU-100">
          <mxGeometry relative="1" as="geometry" />
        </mxCell>
        <mxCell id="xYedoZE-uZVzS92_hHpU-102" value="Delete the record" style="shape=parallelogram;perimeter=parallelogramPerimeter;whiteSpace=wrap;html=1;fixedSize=1;fontSize=12;" parent="1" vertex="1">
          <mxGeometry x="701" y="1135" width="126" height="30" as="geometry" />
        </mxCell>
        <mxCell id="xYedoZE-uZVzS92_hHpU-103" value="From" style="text;html=1;strokeColor=none;fillColor=none;align=center;verticalAlign=middle;whiteSpace=wrap;rounded=0;fontSize=10;" parent="1" vertex="1">
          <mxGeometry x="830" y="1126" width="60" height="30" as="geometry" />
        </mxCell>
        <mxCell id="xYedoZE-uZVzS92_hHpU-106" value="Yes" style="text;html=1;strokeColor=none;fillColor=none;align=center;verticalAlign=middle;whiteSpace=wrap;rounded=0;fontSize=10;" parent="1" vertex="1">
          <mxGeometry x="639" y="1128" width="60" height="30" as="geometry" />
        </mxCell>
        <mxCell id="xYedoZE-uZVzS92_hHpU-108" value="Verify" style="text;html=1;strokeColor=none;fillColor=none;align=center;verticalAlign=middle;whiteSpace=wrap;rounded=0;fontSize=10;" parent="1" vertex="1">
          <mxGeometry x="441" y="1127" width="60" height="30" as="geometry" />
        </mxCell>
        <mxCell id="xYedoZE-uZVzS92_hHpU-110" value="Execute" style="text;html=1;strokeColor=none;fillColor=none;align=center;verticalAlign=middle;whiteSpace=wrap;rounded=0;fontSize=10;" parent="1" vertex="1">
          <mxGeometry x="243" y="1128" width="60" height="30" as="geometry" />
        </mxCell>
        <mxCell id="xYedoZE-uZVzS92_hHpU-115" style="edgeStyle=orthogonalEdgeStyle;rounded=0;orthogonalLoop=1;jettySize=auto;html=1;exitX=1;exitY=0.5;exitDx=0;exitDy=0;entryX=0;entryY=0.5;entryDx=0;entryDy=0;fontSize=12;" parent="1" source="xYedoZE-uZVzS92_hHpU-111" edge="1">
          <mxGeometry relative="1" as="geometry">
            <mxPoint x="630" y="1235" as="targetPoint" />
          </mxGeometry>
        </mxCell>
        <mxCell id="xYedoZE-uZVzS92_hHpU-111" value="&lt;b&gt;&lt;i&gt;cp_Update277CopyToSite&lt;/i&gt;&lt;/b&gt;" style="rounded=0;whiteSpace=wrap;html=1;fontSize=11;" parent="1" vertex="1">
          <mxGeometry x="320" y="1223" width="151" height="24" as="geometry" />
        </mxCell>
        <mxCell id="xYedoZE-uZVzS92_hHpU-112" value="&lt;b&gt;Table Name:&lt;/b&gt;&lt;br&gt;&lt;i&gt;SiteReportOptions&lt;br&gt;(CopyToSite,&lt;br&gt;CopyToSiteFor999)&lt;/i&gt;" style="shape=internalStorage;whiteSpace=wrap;html=1;backgroundOutline=1;fontSize=12;" parent="1" vertex="1">
          <mxGeometry x="630" y="1200" width="190" height="70" as="geometry" />
        </mxCell>
        <mxCell id="xYedoZE-uZVzS92_hHpU-114" value="Execute" style="text;html=1;strokeColor=none;fillColor=none;align=center;verticalAlign=middle;whiteSpace=wrap;rounded=0;fontSize=10;" parent="1" vertex="1">
          <mxGeometry x="243" y="1211" width="60" height="30" as="geometry" />
        </mxCell>
        <mxCell id="xYedoZE-uZVzS92_hHpU-116" value="Update this fields for Site" style="text;html=1;strokeColor=none;fillColor=none;align=center;verticalAlign=middle;whiteSpace=wrap;rounded=0;fontSize=10;" parent="1" vertex="1">
          <mxGeometry x="486" y="1210" width="115" height="30" as="geometry" />
        </mxCell>
        <mxCell id="xYedoZE-uZVzS92_hHpU-117" value="&lt;b&gt;Table Name:&lt;/b&gt;&lt;br&gt;&lt;i&gt;BillOpts&lt;br&gt;&lt;/i&gt;(Site, PrintStats)" style="shape=internalStorage;whiteSpace=wrap;html=1;backgroundOutline=1;fontSize=12;" parent="1" vertex="1">
          <mxGeometry x="399" y="1040" width="172" height="60" as="geometry" />
        </mxCell>
        <mxCell id="xYedoZE-uZVzS92_hHpU-119" value="Update PrintStats for Site" style="text;html=1;strokeColor=none;fillColor=none;align=center;verticalAlign=middle;whiteSpace=wrap;rounded=0;fontSize=10;" parent="1" vertex="1">
          <mxGeometry x="245" y="1045" width="131" height="30" as="geometry" />
        </mxCell>
        <mxCell id="xYedoZE-uZVzS92_hHpU-139" style="edgeStyle=orthogonalEdgeStyle;rounded=0;orthogonalLoop=1;jettySize=auto;html=1;exitX=1;exitY=0.5;exitDx=0;exitDy=0;fontSize=12;" parent="1" source="xYedoZE-uZVzS92_hHpU-135" target="xYedoZE-uZVzS92_hHpU-138" edge="1">
          <mxGeometry relative="1" as="geometry" />
        </mxCell>
        <mxCell id="xYedoZE-uZVzS92_hHpU-135" value="&lt;b&gt;&lt;i&gt;fn_HashPassword_ServU&lt;/i&gt;&lt;/b&gt;" style="shape=process;whiteSpace=wrap;html=1;backgroundOutline=1;fontSize=12;" parent="1" vertex="1">
          <mxGeometry x="376" y="903" width="198" height="20" as="geometry" />
        </mxCell>
        <mxCell id="xYedoZE-uZVzS92_hHpU-137" value="Used to hash the password" style="text;html=1;strokeColor=none;fillColor=none;align=center;verticalAlign=middle;whiteSpace=wrap;rounded=0;fontSize=10;" parent="1" vertex="1">
          <mxGeometry x="235" y="891" width="131" height="30" as="geometry" />
        </mxCell>
        <mxCell id="xYedoZE-uZVzS92_hHpU-138" value="&lt;b&gt;Table Name:&lt;/b&gt;&lt;br&gt;&lt;i&gt;SUUsers&lt;/i&gt;" style="shape=internalStorage;whiteSpace=wrap;html=1;backgroundOutline=1;fontSize=12;" parent="1" vertex="1">
          <mxGeometry x="681" y="893" width="150" height="40" as="geometry" />
        </mxCell>
        <mxCell id="xYedoZE-uZVzS92_hHpU-140" value="Add new user to" style="text;html=1;strokeColor=none;fillColor=none;align=center;verticalAlign=middle;whiteSpace=wrap;rounded=0;fontSize=10;" parent="1" vertex="1">
          <mxGeometry x="560" y="891" width="131" height="30" as="geometry" />
        </mxCell>
        <mxCell id="xYedoZE-uZVzS92_hHpU-146" style="edgeStyle=orthogonalEdgeStyle;rounded=0;orthogonalLoop=1;jettySize=auto;html=1;exitX=1;exitY=0.5;exitDx=0;exitDy=0;entryX=0;entryY=0.5;entryDx=0;entryDy=0;fontSize=12;" parent="1" source="xYedoZE-uZVzS92_hHpU-141" target="xYedoZE-uZVzS92_hHpU-145" edge="1">
          <mxGeometry relative="1" as="geometry" />
        </mxCell>
        <mxCell id="xYedoZE-uZVzS92_hHpU-141" value="&lt;b&gt;&lt;i&gt;cp_UpdatePassword&lt;/i&gt;&lt;/b&gt;" style="rounded=0;whiteSpace=wrap;html=1;fontSize=11;" parent="1" vertex="1">
          <mxGeometry x="360" y="839" width="120" height="24" as="geometry" />
        </mxCell>
        <mxCell id="xYedoZE-uZVzS92_hHpU-142" value="&lt;b&gt;Table Name:&lt;/b&gt;&lt;br&gt;&lt;i&gt;FTP_Users, FTP_UserAccess&lt;/i&gt;" style="shape=internalStorage;whiteSpace=wrap;html=1;backgroundOutline=1;fontSize=12;" parent="1" vertex="1">
          <mxGeometry x="361" y="786" width="210" height="40" as="geometry" />
        </mxCell>
        <mxCell id="xYedoZE-uZVzS92_hHpU-145" value="&lt;b&gt;Table Name:&lt;/b&gt;&lt;br&gt;&lt;i&gt;SUUsers&lt;/i&gt;" style="shape=internalStorage;whiteSpace=wrap;html=1;backgroundOutline=1;fontSize=12;" parent="1" vertex="1">
          <mxGeometry x="594" y="831" width="150" height="40" as="geometry" />
        </mxCell>
        <mxCell id="xYedoZE-uZVzS92_hHpU-147" value="Execute" style="text;html=1;strokeColor=none;fillColor=none;align=center;verticalAlign=middle;whiteSpace=wrap;rounded=0;fontSize=10;" parent="1" vertex="1">
          <mxGeometry x="270" y="828" width="60" height="30" as="geometry" />
        </mxCell>
        <mxCell id="xYedoZE-uZVzS92_hHpU-149" value="Update" style="text;html=1;strokeColor=none;fillColor=none;align=center;verticalAlign=middle;whiteSpace=wrap;rounded=0;fontSize=10;" parent="1" vertex="1">
          <mxGeometry x="511" y="827" width="60" height="30" as="geometry" />
        </mxCell>
        <mxCell id="xYedoZE-uZVzS92_hHpU-150" value="Update" style="text;html=1;strokeColor=none;fillColor=none;align=center;verticalAlign=middle;whiteSpace=wrap;rounded=0;fontSize=10;" parent="1" vertex="1">
          <mxGeometry x="269" y="783" width="60" height="30" as="geometry" />
        </mxCell>
        <mxCell id="rZj4ElR0E89LXgk3V-ty-1" value="&lt;i&gt;&lt;b&gt;cp_PVP_DeleteRevSharePlanBySiteID&lt;/b&gt;&lt;/i&gt;" style="whiteSpace=wrap;html=1;fontSize=10;" vertex="1" parent="1">
          <mxGeometry x="701" y="112" width="183.5" height="26" as="geometry" />
        </mxCell>
        <mxCell id="rZj4ElR0E89LXgk3V-ty-4" style="edgeStyle=orthogonalEdgeStyle;rounded=0;orthogonalLoop=1;jettySize=auto;html=1;exitX=0.5;exitY=0.5;exitDx=0;exitDy=0;exitPerimeter=0;entryX=0;entryY=0.5;entryDx=0;entryDy=0;" edge="1" parent="1" source="rZj4ElR0E89LXgk3V-ty-3" target="xYedoZE-uZVzS92_hHpU-1">
          <mxGeometry relative="1" as="geometry" />
        </mxCell>
        <mxCell id="rZj4ElR0E89LXgk3V-ty-3" value="Authorized&lt;br&gt;Site User" style="shape=umlActor;verticalLabelPosition=bottom;verticalAlign=top;html=1;outlineConnect=0;" vertex="1" parent="1">
          <mxGeometry x="16" y="152" width="30" height="60" as="geometry" />
        </mxCell>
        <mxCell id="rZj4ElR0E89LXgk3V-ty-5" value="&lt;b&gt;&lt;font style=&quot;font-size: 14px;&quot;&gt;&lt;u&gt;When User clicks on SaveChanges button on EditCustomer, it executes &lt;i&gt;SaveSite()&lt;/i&gt; function.&lt;/u&gt;&lt;/font&gt;&lt;/b&gt;" style="text;html=1;strokeColor=none;fillColor=none;align=center;verticalAlign=middle;whiteSpace=wrap;rounded=0;" vertex="1" parent="1">
          <mxGeometry x="5" y="10" width="648" height="30" as="geometry" />
        </mxCell>
        <mxCell id="rZj4ElR0E89LXgk3V-ty-10" style="edgeStyle=orthogonalEdgeStyle;rounded=0;orthogonalLoop=1;jettySize=auto;html=1;exitX=1;exitY=0.5;exitDx=0;exitDy=0;entryX=0;entryY=0.5;entryDx=0;entryDy=0;fontSize=14;" edge="1" parent="1" source="rZj4ElR0E89LXgk3V-ty-8" target="rZj4ElR0E89LXgk3V-ty-9">
          <mxGeometry relative="1" as="geometry" />
        </mxCell>
        <mxCell id="rZj4ElR0E89LXgk3V-ty-13" style="edgeStyle=orthogonalEdgeStyle;rounded=0;orthogonalLoop=1;jettySize=auto;html=1;exitX=0.5;exitY=1;exitDx=0;exitDy=0;entryX=0;entryY=0.5;entryDx=0;entryDy=0;fontSize=14;" edge="1" parent="1" source="rZj4ElR0E89LXgk3V-ty-8" target="rZj4ElR0E89LXgk3V-ty-12">
          <mxGeometry relative="1" as="geometry">
            <Array as="points">
              <mxPoint x="381" y="450" />
              <mxPoint x="515" y="450" />
              <mxPoint x="515" y="423" />
            </Array>
          </mxGeometry>
        </mxCell>
        <mxCell id="rZj4ElR0E89LXgk3V-ty-8" value="If Not Solomon-&lt;br&gt;Unavailable = true" style="rhombus;whiteSpace=wrap;html=1;fontSize=14;" vertex="1" parent="1">
          <mxGeometry x="290" y="360" width="181" height="70" as="geometry" />
        </mxCell>
        <mxCell id="rZj4ElR0E89LXgk3V-ty-17" style="edgeStyle=orthogonalEdgeStyle;rounded=0;orthogonalLoop=1;jettySize=auto;html=1;exitX=1;exitY=0.5;exitDx=0;exitDy=0;entryX=0;entryY=0.5;entryDx=0;entryDy=0;fontSize=14;" edge="1" parent="1" source="rZj4ElR0E89LXgk3V-ty-9" target="rZj4ElR0E89LXgk3V-ty-15">
          <mxGeometry relative="1" as="geometry" />
        </mxCell>
        <mxCell id="rZj4ElR0E89LXgk3V-ty-9" value="&lt;b&gt;UpdateSolomon()&lt;/b&gt;" style="rounded=0;whiteSpace=wrap;html=1;fontSize=14;" vertex="1" parent="1">
          <mxGeometry x="559" y="370" width="137" height="25" as="geometry" />
        </mxCell>
        <mxCell id="rZj4ElR0E89LXgk3V-ty-11" value="Yes" style="text;html=1;strokeColor=none;fillColor=none;align=center;verticalAlign=middle;whiteSpace=wrap;rounded=0;fontSize=10;" vertex="1" parent="1">
          <mxGeometry x="459" y="370.5" width="60" height="30" as="geometry" />
        </mxCell>
        <mxCell id="rZj4ElR0E89LXgk3V-ty-20" style="edgeStyle=orthogonalEdgeStyle;rounded=0;orthogonalLoop=1;jettySize=auto;html=1;exitX=1;exitY=0.5;exitDx=0;exitDy=0;entryX=0;entryY=0.5;entryDx=0;entryDy=0;fontSize=14;" edge="1" parent="1" source="rZj4ElR0E89LXgk3V-ty-12" target="rZj4ElR0E89LXgk3V-ty-19">
          <mxGeometry relative="1" as="geometry">
            <Array as="points">
              <mxPoint x="750" y="423" />
              <mxPoint x="750" y="432" />
            </Array>
          </mxGeometry>
        </mxCell>
        <mxCell id="rZj4ElR0E89LXgk3V-ty-12" value="&lt;i&gt;&lt;font style=&quot;font-size: 12px;&quot;&gt;cp_GetSolomonStatus&lt;/font&gt;&lt;/i&gt;" style="rounded=0;whiteSpace=wrap;html=1;fontSize=14;" vertex="1" parent="1">
          <mxGeometry x="559" y="410" width="159" height="26" as="geometry" />
        </mxCell>
        <mxCell id="rZj4ElR0E89LXgk3V-ty-14" value="Executes to get status value" style="text;html=1;strokeColor=none;fillColor=none;align=center;verticalAlign=middle;whiteSpace=wrap;rounded=0;fontSize=10;" vertex="1" parent="1">
          <mxGeometry x="405" y="423" width="101" height="30" as="geometry" />
        </mxCell>
        <mxCell id="rZj4ElR0E89LXgk3V-ty-23" style="edgeStyle=orthogonalEdgeStyle;rounded=0;orthogonalLoop=1;jettySize=auto;html=1;exitX=1;exitY=0.5;exitDx=0;exitDy=0;entryX=0;entryY=0.5;entryDx=0;entryDy=0;entryPerimeter=0;fontSize=14;" edge="1" parent="1" source="rZj4ElR0E89LXgk3V-ty-15" target="rZj4ElR0E89LXgk3V-ty-22">
          <mxGeometry relative="1" as="geometry" />
        </mxCell>
        <mxCell id="rZj4ElR0E89LXgk3V-ty-15" value="&lt;i&gt;&lt;font style=&quot;font-size: 12px;&quot;&gt;cp_UpdateSolomonImport_BySite&lt;/font&gt;&lt;/i&gt;" style="rounded=0;whiteSpace=wrap;html=1;fontSize=14;" vertex="1" parent="1">
          <mxGeometry x="753" y="366.25" width="222" height="32.5" as="geometry" />
        </mxCell>
        <mxCell id="rZj4ElR0E89LXgk3V-ty-19" value="&lt;b&gt;Database: Admin&lt;/b&gt;&lt;br&gt;&lt;i&gt;Table: SolomonStatus&lt;/i&gt;" style="shape=internalStorage;whiteSpace=wrap;html=1;backgroundOutline=1;fontSize=14;" vertex="1" parent="1">
          <mxGeometry x="810" y="410" width="189" height="44" as="geometry" />
        </mxCell>
        <mxCell id="rZj4ElR0E89LXgk3V-ty-22" value="&lt;b&gt;GediAcctAppVB&lt;/b&gt;" style="shape=cylinder3;whiteSpace=wrap;html=1;boundedLbl=1;backgroundOutline=1;size=15;fontSize=14;" vertex="1" parent="1">
          <mxGeometry x="1020" y="353.5" width="110" height="56.5" as="geometry" />
        </mxCell>
        <mxCell id="rZj4ElR0E89LXgk3V-ty-24" value="&lt;b&gt;&lt;font style=&quot;font-size: 12px;&quot;&gt;5&lt;/font&gt;&lt;/b&gt;" style="ellipse;whiteSpace=wrap;html=1;fontSize=11;fillColor=#f8cecc;strokeColor=#b85450;" vertex="1" parent="1">
          <mxGeometry x="263" y="370.5" width="20" height="20" as="geometry" />
        </mxCell>
        <mxCell id="rZj4ElR0E89LXgk3V-ty-26" value="Execute" style="text;html=1;strokeColor=none;fillColor=none;align=center;verticalAlign=middle;whiteSpace=wrap;rounded=0;fontSize=10;" vertex="1" parent="1">
          <mxGeometry x="694" y="359.5" width="60" height="30" as="geometry" />
        </mxCell>
        <mxCell id="rZj4ElR0E89LXgk3V-ty-27" value="Uses" style="text;html=1;strokeColor=none;fillColor=none;align=center;verticalAlign=middle;whiteSpace=wrap;rounded=0;fontSize=10;" vertex="1" parent="1">
          <mxGeometry x="967" y="359.5" width="60" height="30" as="geometry" />
        </mxCell>
        <mxCell id="rZj4ElR0E89LXgk3V-ty-28" value="Uses" style="text;html=1;strokeColor=none;fillColor=none;align=center;verticalAlign=middle;whiteSpace=wrap;rounded=0;fontSize=10;" vertex="1" parent="1">
          <mxGeometry x="744" y="408" width="60" height="30" as="geometry" />
        </mxCell>
      </root>
    </mxGraphModel>
  </diagram>
</mxfile>
